<?xml version="1.0" encoding="UTF-8" standalone="no"?>
<!DOCTYPE svg PUBLIC "-//W3C//DTD SVG 1.0//EN" "http://www.w3.org/TR/2001/REC-SVG-20010904/DTD/svg10.dtd">
<svg
   xmlns:svg="http://www.w3.org/2000/svg"
   xmlns="http://www.w3.org/2000/svg"
   version="1.0"
   width="100%"
   height="100%"
   viewBox="0 0 995 290"
   id="svg2"
   xml:space="preserve"><defs
     id="defs5" /><g
     transform="matrix(1.25,0,0,-1.25,-66.25,544.1)"
     id="g11"><g
       transform="translate(3.2,-2.62)"
       id="g3208"><path
         d="M 368.5,308.5 L 363.7,308.5 L 363.7,276.3 L 368.5,276.3 L 368.5,308.5 z M 343.7,339.4 L 343.7,360.7 L 338.8,360.7 L 338.8,339.7 C 338.8,335.4 336.2,332.7 332.2,332.7 C 328.1,332.7 325.5,335.4 325.5,339.7 L 325.5,360.7 L 320.6,360.7 L 320.6,339.4 C 320.6,332.8 325.6,328.3 332.2,328.3 C 338.7,328.3 343.7,332.8 343.7,339.4 M 375.8,328.6 L 375.8,360.7 L 370.9,360.7 L 370.9,338.2 L 356.1,360.7 L 351.6,360.7 L 351.6,328.6 L 356.5,328.6 L 356.5,351.2 L 371.3,328.6 L 375.8,328.6 z M 389.1,360.7 L 384.2,360.7 L 384.2,328.6 L 389.1,328.6 L 389.1,360.7 z M 418.5,360.7 L 413.4,360.7 L 406,337.4 L 398.6,360.7 L 393.5,360.7 L 404.1,328.6 L 407.9,328.6 L 418.5,360.7 z M 443.5,328.6 L 443.5,333 L 427.8,333 L 427.8,342.6 L 441.2,342.6 L 441.2,347 L 427.8,347 L 427.8,356.4 L 443.5,356.4 L 443.5,360.7 L 423,360.7 L 423,328.6 L 443.5,328.6 z M 473.6,328.6 L 466.2,342.8 C 469.8,343.8 472.6,346.8 472.6,351.4 C 472.6,356.8 468.7,360.7 462.6,360.7 L 450.2,360.7 L 450.2,328.6 L 455,328.6 L 455,342.1 L 461.1,342.1 L 467.9,328.6 L 473.6,328.6 z M 467.7,351.3 C 467.7,348.2 465.5,346.3 462.3,346.3 L 455,346.3 L 455,356.4 L 462.3,356.4 C 465.5,356.4 467.7,354.5 467.7,351.3 M 499.8,337.8 C 499.8,340.5 499,342.8 497.2,344.4 C 495.9,345.6 494.2,346.3 491.2,346.8 L 487.5,347.3 C 486.1,347.5 484.7,348.1 483.9,348.8 C 483.1,349.6 482.7,350.6 482.7,351.8 C 482.7,354.6 484.8,356.8 488.6,356.8 C 491.3,356.8 493.6,356.2 495.6,354.3 L 498.7,357.4 C 495.9,359.9 493,361 488.7,361 C 482,361 478,357.2 478,351.6 C 478,349 478.7,346.9 480.3,345.4 C 481.7,344.1 483.8,343.2 486.4,342.9 L 490.2,342.3 C 492.1,342.1 492.9,341.7 493.7,341 C 494.6,340.2 495,339 495,337.6 C 495,334.5 492.6,332.7 488.4,332.7 C 485.1,332.7 482.5,333.4 480.1,335.8 L 476.9,332.6 C 480,329.5 483.4,328.3 488.3,328.3 C 495,328.3 499.8,331.9 499.8,337.8 M 511.2,360.7 L 506.4,360.7 L 506.4,328.6 L 511.2,328.6 L 511.2,360.7 z M 539.4,356.4 L 539.4,360.7 L 516.8,360.7 L 516.8,356.4 L 525.6,356.4 L 525.6,328.6 L 530.5,328.6 L 530.5,356.4 L 539.4,356.4 z M 559,369 L 554.8,369 L 554.8,364.1 L 559,364.1 L 559,369 z M 549.2,369 L 545,369 L 545,364.1 L 549.2,364.1 L 549.2,369 z M 565.9,328.6 L 554.1,360.7 L 550.2,360.7 L 538.4,328.6 L 543.6,328.6 L 545.8,335.1 L 558.5,335.1 L 560.7,328.6 L 565.9,328.6 z M 557.1,339.2 L 547.2,339.2 L 552.2,353.5 L 557.1,339.2 z M 587.4,356.4 L 587.4,360.7 L 564.9,360.7 L 564.9,356.4 L 573.7,356.4 L 573.7,328.6 L 578.6,328.6 L 578.6,356.4 L 587.4,356.4 z M 588.1,380.2 L 588.1,384.6 L 572.5,384.6 L 572.5,394.3 L 585.8,394.3 L 585.8,398.6 L 572.5,398.6 L 572.5,408 L 588.1,408 L 588.1,412.4 L 567.6,412.4 L 567.6,380.2 L 588.1,380.2 z M 343.2,408 L 343.2,412.4 L 320.6,412.4 L 320.6,408 L 329.5,408 L 329.5,380.2 L 334.4,380.2 L 334.4,408 L 343.2,408 z M 369.3,380.2 L 369.3,384.6 L 353.6,384.6 L 353.6,394.3 L 367,394.3 L 367,398.6 L 353.6,398.6 L 353.6,408 L 369.3,408 L 369.3,412.4 L 348.8,412.4 L 348.8,380.2 L 369.3,380.2 z M 397.8,389.9 L 392.9,389.9 C 392.1,386.6 389.9,384.4 386.4,384.4 C 384.5,384.4 382.8,385.1 381.6,386.3 C 380,388 379.7,389.9 379.7,396.3 C 379.7,402.8 380,404.6 381.6,406.3 C 382.8,407.6 384.5,408.3 386.4,408.3 C 389.9,408.3 392.1,406 392.9,402.8 L 397.8,402.8 C 396.7,409.2 392.3,412.7 386.4,412.7 C 383,412.7 380.1,411.4 377.9,409.2 C 374.8,406.1 374.8,402.5 374.8,396.3 C 374.8,390.1 374.8,386.6 377.9,383.4 C 380.1,381.2 383,380 386.4,380 C 392.2,380 396.8,383.5 397.8,389.9 M 427.1,380.2 L 427.1,412.4 L 422.3,412.4 L 422.3,398.7 L 409.2,398.7 L 409.2,412.4 L 404.3,412.4 L 404.3,380.2 L 409.2,380.2 L 409.2,394.3 L 422.3,394.3 L 422.3,380.2 L 427.1,380.2 z M 459.7,380.2 L 459.7,412.4 L 454.9,412.4 L 454.9,389.8 L 440,412.4 L 435.5,412.4 L 435.5,380.2 L 440.4,380.2 L 440.4,402.9 L 455.3,380.2 L 459.7,380.2 z M 473,412.4 L 468.1,412.4 L 468.1,380.2 L 473,380.2 L 473,412.4 z M 501.5,389.4 C 501.5,392.2 500.6,394.5 498.9,396 C 497.5,397.2 495.9,397.9 492.9,398.4 L 489.2,398.9 C 487.7,399.2 486.4,399.7 485.6,400.4 C 484.7,401.2 484.4,402.2 484.4,403.4 C 484.4,406.3 486.5,408.4 490.3,408.4 C 493,408.4 495.3,407.8 497.3,405.9 L 500.4,409 C 497.6,411.6 494.6,412.7 490.4,412.7 C 483.7,412.7 479.6,408.8 479.6,403.2 C 479.6,400.6 480.4,398.6 482,397.1 C 483.4,395.8 485.5,394.9 488.1,394.5 L 491.9,394 C 493.8,393.7 494.6,393.4 495.4,392.6 C 496.3,391.8 496.7,390.7 496.7,389.3 C 496.7,386.2 494.2,384.4 490,384.4 C 486.7,384.4 484.2,385.1 481.8,387.4 L 478.6,384.2 C 481.6,381.1 485.1,380 489.9,380 C 496.7,380 501.5,383.5 501.5,389.4 M 529.9,389.9 L 525,389.9 C 524.2,386.6 522,384.4 518.4,384.4 C 516.5,384.4 514.8,385.1 513.7,386.3 C 512.1,388 511.7,389.9 511.7,396.3 C 511.7,402.8 512.1,404.6 513.7,406.3 C 514.8,407.6 516.5,408.3 518.4,408.3 C 522,408.3 524.2,406 524.9,402.8 L 529.9,402.8 C 528.8,409.2 524.3,412.7 518.4,412.7 C 515.1,412.7 512.2,411.4 510,409.2 C 506.8,406.1 506.9,402.5 506.9,396.3 C 506.9,390.1 506.8,386.6 510,383.4 C 512.2,381.2 515.1,380 518.4,380 C 524.2,380 528.8,383.5 529.9,389.9 M 559.2,380.2 L 559.2,412.4 L 554.3,412.4 L 554.3,398.7 L 541.3,398.7 L 541.3,412.4 L 536.4,412.4 L 536.4,380.2 L 541.3,380.2 L 541.3,394.3 L 554.3,394.3 L 554.3,380.2 L 559.2,380.2 z M 397.5,276.3 L 397.5,280.7 L 381.8,280.7 L 381.8,290.4 L 395.2,290.4 L 395.2,294.7 L 381.8,294.7 L 381.8,304.1 L 397.5,304.1 L 397.5,308.5 L 376.9,308.5 L 376.9,276.3 L 397.5,276.3 z M 428.4,276.3 L 428.4,308.5 L 423.5,308.5 L 423.5,285.9 L 408.6,308.5 L 404.2,308.5 L 404.2,276.3 L 409,276.3 L 409,298.9 L 423.9,276.3 L 428.4,276.3 z M 359,308.5 L 353.8,308.5 L 348.2,285.5 L 341.8,308.5 L 337.8,308.5 L 331.4,285.5 L 325.8,308.5 L 320.6,308.5 L 329,276.3 L 333.3,276.3 L 339.8,298.9 L 346.3,276.3 L 350.6,276.3"
         id="path15"
         style="fill:#646567;fill-opacity:1;fill-rule:evenodd;stroke:none" /><path
         d="M 630.4,240.4 C 630.4,238.3 630.3,236.4 629.2,235.2 C 628.5,234.5 627.5,234.1 626.4,234.1 C 625.3,234.1 624.4,234.5 623.7,235.2 C 622.5,236.4 622.4,238.3 622.4,240.4 C 622.4,242.4 622.5,244.4 623.7,245.5 C 624.4,246.2 625.3,246.6 626.4,246.6 C 627.5,246.6 628.5,246.2 629.2,245.5 C 630.3,244.4 630.4,242.4 630.4,240.4 M 634.2,240.4 C 634.2,243.5 633.8,245.9 632,247.7 C 630.8,249 628.9,249.9 626.4,249.9 C 623.8,249.9 622,249 620.8,247.7 C 619,245.9 618.6,243.5 618.6,240.4 C 618.6,237.2 619,234.8 620.8,233 C 622,231.7 623.8,230.8 626.4,230.8 C 628.9,230.8 630.8,231.7 632,233 C 633.8,234.8 634.2,237.2 634.2,240.4 M 647.4,246.5 L 647.4,249.4 L 643.6,249.4 L 643.6,252.1 C 643.6,253.4 644.3,254.2 645.7,254.2 L 647.4,254.2 L 647.4,257.5 L 645,257.5 C 641.5,257.5 639.9,254.9 639.9,252.3 L 639.9,249.4 L 637.7,249.4 L 637.7,246.5 L 639.9,246.5 L 639.9,231 L 643.6,231 L 643.6,246.5 L 647.4,246.5 z M 689.5,241.9 L 681.1,241.9 C 681.1,243 681.2,243.6 681.6,244.4 C 682.1,245.8 683.5,246.8 685.3,246.8 C 687.1,246.8 688.4,245.8 689,244.4 C 689.3,243.6 689.4,243 689.5,241.9 M 693.2,239.3 L 693.2,240.9 C 693.2,246.2 690.3,249.9 685.3,249.9 C 680.5,249.9 677.3,246.4 677.3,240.4 C 677.3,233.3 681.1,230.8 685.8,230.8 C 689,230.8 690.9,231.8 692.8,233.7 L 690.4,236 C 689,234.6 687.9,234 685.8,234 C 682.8,234 681.1,236.1 681.1,239.3 L 693.2,239.3 z M 676.8,253.7 L 676.8,257.3 L 658.4,257.3 L 658.4,253.7 L 665.6,253.7 L 665.6,231 L 669.6,231 L 669.6,253.7 L 676.8,253.7 z M 711.7,233.4 L 709.1,235.9 C 708,234.6 707,234.1 705.6,234.1 C 704.1,234.1 702.9,234.7 702.1,235.8 C 701.3,236.8 701,238.2 701,240.4 C 701,242.6 701.3,243.9 702.1,244.9 C 702.9,246 704.1,246.6 705.6,246.6 C 707,246.6 708,246.1 709.1,244.8 L 711.7,247.3 C 710,249.2 708.1,249.9 705.6,249.9 C 701.4,249.9 697.2,247.4 697.2,240.4 C 697.2,233.4 701.4,230.8 705.6,230.8 C 708.1,230.8 710,231.6 711.7,233.4 M 768.9,240.4 C 768.9,238.3 768.7,236.4 767.6,235.2 C 766.9,234.5 765.9,234.1 764.8,234.1 C 763.7,234.1 762.8,234.5 762.1,235.2 C 760.9,236.4 760.8,238.3 760.8,240.4 C 760.8,242.4 760.9,244.4 762.1,245.5 C 762.8,246.2 763.7,246.6 764.8,246.6 C 765.9,246.6 766.9,246.2 767.6,245.5 C 768.7,244.4 768.9,242.4 768.9,240.4 M 772.6,240.4 C 772.6,243.5 772.2,245.9 770.4,247.7 C 769.2,249 767.4,249.9 764.8,249.9 C 762.3,249.9 760.5,249 759.2,247.7 C 757.5,245.9 757,243.5 757,240.4 C 757,237.2 757.5,234.8 759.2,233 C 760.5,231.7 762.3,230.8 764.8,230.8 C 767.4,230.8 769.2,231.7 770.4,233 C 772.2,234.8 772.6,237.2 772.6,240.4 M 731.2,231 L 731.2,243.1 C 731.2,247.1 728.8,249.9 724.7,249.9 C 722.8,249.9 721.1,249.2 719.8,247.8 L 719.8,257.3 L 716.1,257.3 L 716.1,231 L 719.8,231 L 719.8,242.5 C 719.8,245.3 721.5,246.6 723.6,246.6 C 725.7,246.6 727.4,245.3 727.4,242.5 L 727.4,231 L 731.2,231 z M 799.4,240.4 C 799.4,238.3 799.3,236.4 798.1,235.2 C 797.4,234.5 796.4,234.1 795.3,234.1 C 794.2,234.1 793.3,234.5 792.6,235.2 C 791.5,236.4 791.3,238.3 791.3,240.4 C 791.3,242.4 791.5,244.4 792.6,245.5 C 793.3,246.2 794.2,246.6 795.3,246.6 C 796.4,246.6 797.4,246.2 798.1,245.5 C 799.3,244.4 799.4,242.4 799.4,240.4 M 803.2,240.4 C 803.2,243.5 802.7,245.9 800.9,247.7 C 799.7,249 797.9,249.9 795.3,249.9 C 792.8,249.9 791,249 789.8,247.7 C 788,245.9 787.6,243.5 787.6,240.4 C 787.6,237.2 788,234.8 789.8,233 C 791,231.7 792.8,230.8 795.3,230.8 C 797.9,230.8 799.7,231.7 800.9,233 C 802.7,234.8 803.2,237.2 803.2,240.4 M 752.1,231 L 752.1,243 C 752.1,245.1 751.7,246.8 750.2,248.2 C 749.1,249.3 747.5,249.9 745.6,249.9 C 743.7,249.9 741.9,249.2 740.6,247.8 L 740.6,249.7 L 737,249.7 L 737,231 L 740.7,231 L 740.7,242.4 C 740.7,245.3 742.5,246.6 744.6,246.6 C 746.7,246.6 748.4,245.3 748.4,242.4 L 748.4,231 L 752.1,231 z M 818.8,240.7 C 818.8,237.8 818.4,234.8 815,234.8 C 811.6,234.8 811.1,237.8 811.1,240.7 C 811.1,243.7 811.6,246.6 815,246.6 C 818.4,246.6 818.8,243.7 818.8,240.7 M 822.5,231.1 L 822.5,249.7 L 818.9,249.7 L 818.9,247.7 C 817.5,249.4 816,249.9 814,249.9 C 812.1,249.9 810.5,249.3 809.5,248.3 C 807.7,246.5 807.4,243.9 807.4,240.7 C 807.4,237.5 807.7,234.9 809.5,233.1 C 810.5,232.1 812,231.4 813.9,231.4 C 815.8,231.4 817.4,232 818.8,233.6 L 818.8,231.2 C 818.8,228.7 817.5,226.4 814.4,226.4 C 812.5,226.4 811.5,227 810.3,228.1 L 807.9,225.7 C 809.9,223.9 811.7,223.2 814.5,223.2 C 819.5,223.2 822.5,226.5 822.5,231.1 M 785.1,231 L 785.1,234.2 L 783.4,234.2 C 781.9,234.2 781.4,235 781.4,236.4 L 781.4,257.3 L 777.6,257.3 L 777.6,236.2 C 777.6,233.4 779.2,231 782.7,231 L 785.1,231 z M 842.6,249.7 L 838.6,249.7 L 834.3,236.5 L 829.8,249.7 L 825.8,249.7 L 832.3,231.9 L 831.3,229 C 830.7,227.5 830.2,227 828.6,227 L 827.6,227 L 827.6,223.6 L 829.2,223.6 C 830.6,223.6 832,223.9 833,225 C 833.6,225.5 834,226.2 834.4,227.3 L 842.6,249.7 z M 463.2,239.9 L 463.2,257.3 L 459.2,257.3 L 459.2,240 C 459.2,236.5 457.1,234.4 453.8,234.4 C 450.5,234.4 448.4,236.5 448.4,240 L 448.4,257.3 L 444.4,257.3 L 444.4,239.9 C 444.4,234.4 448.4,230.8 453.8,230.8 C 459.1,230.8 463.2,234.4 463.2,239.9 M 484.4,231 L 484.4,243 C 484.4,245.1 484,246.8 482.5,248.2 C 481.4,249.3 479.8,249.9 477.9,249.9 C 476,249.9 474.2,249.2 472.9,247.8 L 472.9,249.7 L 469.2,249.7 L 469.2,231 L 473,231 L 473,242.4 C 473,245.3 474.8,246.6 476.9,246.6 C 479,246.6 480.6,245.3 480.6,242.4 L 480.6,231 L 484.4,231 z M 494.1,257.4 L 490.1,257.4 L 490.1,253.4 L 494.1,253.4 L 494.1,257.4 z M 528.1,241.9 L 519.7,241.9 C 519.7,243 519.8,243.6 520.2,244.4 C 520.8,245.8 522.1,246.8 523.9,246.8 C 525.7,246.8 527,245.8 527.6,244.4 C 528,243.6 528.1,243 528.1,241.9 M 531.8,239.3 L 531.8,240.9 C 531.8,246.2 528.9,249.9 523.9,249.9 C 519.1,249.9 516,246.4 516,240.4 C 516,233.3 519.7,230.8 524.4,230.8 C 527.7,230.8 529.5,231.8 531.4,233.7 L 529,236 C 527.7,234.6 526.6,234 524.5,234 C 521.4,234 519.7,236.1 519.7,239.3 L 531.8,239.3 z M 494,249.7 L 490.2,249.7 L 490.2,231 L 494,231 L 494,249.7 z M 514,249.7 L 510,249.7 L 505.6,236.5 L 501.2,249.7 L 497.2,249.7 L 504.1,231 L 507.2,231 L 514,249.7 z M 549.9,248.2 C 548.6,249.5 547.3,249.9 545.5,249.9 C 543.4,249.9 541.5,249 540.5,247.7 L 540.5,249.7 L 536.8,249.7 L 536.8,231 L 540.6,231 L 540.6,242.4 C 540.6,245 542.3,246.6 544.3,246.6 C 545.6,246.6 546.2,246.2 547.1,245.3 L 549.9,248.2 z M 566.5,236.7 C 566.5,240 564.4,241.7 560.9,242 L 557.9,242.3 C 556,242.4 555.4,243.3 555.4,244.4 C 555.4,245.8 556.5,246.8 558.8,246.8 C 560.5,246.8 562.2,246.4 563.4,245.4 L 565.7,247.8 C 564,249.3 561.6,249.9 558.8,249.9 C 554.9,249.9 551.7,247.9 551.7,244.2 C 551.7,240.9 553.8,239.3 557.3,239 L 560.3,238.8 C 562.1,238.6 562.8,237.8 562.8,236.6 C 562.8,234.8 561,234 558.7,234 C 556.8,234 554.8,234.4 553.3,236 L 550.8,233.5 C 553,231.3 555.6,230.8 558.7,230.8 C 563.1,230.8 566.5,232.8 566.5,236.7 M 574.9,257.4 L 570.9,257.4 L 570.9,253.4 L 574.9,253.4 L 574.9,257.4 z M 574.8,249.7 L 571,249.7 L 571,231 L 574.8,231 L 574.8,249.7 z M 588.6,231 L 588.6,234.2 L 587,234.2 C 585.6,234.2 585,235 585,236.4 L 585,246.5 L 588.6,246.5 L 588.6,249.4 L 585,249.4 L 585,255.1 L 581.2,255.1 L 581.2,249.4 L 579.1,249.4 L 579.1,246.5 L 581.2,246.5 L 581.2,236.2 C 581.2,233.5 582.8,231 586.3,231 L 588.6,231 z M 607.5,249.7 L 603.5,249.7 L 599.1,236.5 L 594.7,249.7 L 590.7,249.7 L 597.2,231.9 L 596.2,229 C 595.6,227.5 595.1,227 593.5,227 L 592.5,227 L 592.5,223.6 L 594,223.6 C 595.5,223.6 596.8,223.9 597.9,225 C 598.4,225.5 598.9,226.2 599.2,227.3 L 607.5,249.7 z M 365.3,241.9 L 356.9,241.9 C 357,243 357,243.6 357.4,244.4 C 358,245.8 359.4,246.8 361.1,246.8 C 362.9,246.8 364.2,245.8 364.8,244.4 C 365.2,243.6 365.3,243 365.3,241.9 M 369.1,239.3 L 369.1,240.9 C 369.1,246.2 366.1,249.9 361.1,249.9 C 356.3,249.9 353.2,246.4 353.2,240.4 C 353.2,233.3 356.9,230.8 361.6,230.8 C 364.9,230.8 366.7,231.8 368.6,233.7 L 366.2,236 C 364.9,234.6 363.8,234 361.7,234 C 358.6,234 356.9,236.1 356.9,239.3 L 369.1,239.3 z M 348.3,257.4 L 344.3,257.4 L 344.3,253.4 L 348.3,253.4 L 348.3,257.4 z M 348.2,249.7 L 344.4,249.7 L 344.4,231 L 348.2,231 L 348.2,249.7 z M 425.9,237.8 C 425.9,236.4 425.7,235.5 425.1,235 C 424.1,234 423.1,233.9 421.6,233.9 C 419.3,233.9 418.2,234.9 418.2,236.6 C 418.2,238.3 419.3,239.3 421.5,239.3 L 425.9,239.3 L 425.9,237.8 z M 429.7,231 L 429.7,243.5 C 429.7,247.8 427.1,249.9 422,249.9 C 418.9,249.9 417,249.3 415.3,247.2 L 417.7,244.9 C 418.8,246.2 419.8,246.7 421.8,246.7 C 424.8,246.7 425.9,245.6 425.9,243.2 L 425.9,241.9 L 421,241.9 C 416.7,241.9 414.5,239.6 414.5,236.5 C 414.5,234.9 415.1,233.5 416,232.5 C 417.2,231.3 418.7,230.8 421,230.8 C 423.4,230.8 424.6,231.3 426,232.7 L 426,231 L 429.7,231 z M 389.2,231 L 389.2,243 C 389.2,245.1 388.8,246.8 387.3,248.2 C 386.2,249.3 384.6,249.9 382.7,249.9 C 380.8,249.9 379,249.2 377.7,247.8 L 377.7,249.7 L 374,249.7 L 374,231 L 377.8,231 L 377.8,242.4 C 377.8,245.3 379.6,246.6 381.7,246.6 C 383.8,246.6 385.4,245.3 385.4,242.4 L 385.4,231 L 389.2,231 z M 410.1,231 L 410.1,243 C 410.1,245.1 409.7,246.8 408.3,248.2 C 407.2,249.3 405.6,249.9 403.7,249.9 C 401.8,249.9 400,249.2 398.7,247.8 L 398.7,249.7 L 395,249.7 L 395,231 L 398.7,231 L 398.7,242.4 C 398.7,245.3 400.5,246.6 402.6,246.6 C 404.7,246.6 406.4,245.3 406.4,242.4 L 406.4,231 L 410.1,231 z M 341.2,257.3 L 337,257.3 L 331,238.2 L 324.9,257.3 L 320.8,257.3 L 329.4,231 L 332.5,231"
         id="path17"
         style="fill:#646567;fill-opacity:1;fill-rule:evenodd;stroke:none" /><g
         id="g3197"><path
           d="M 257.1,435.3 C 269.6,435.3 279.7,425.2 279.7,412.6 L 279.8,231.2 C 279.8,218.7 269.6,208.5 257.1,208.5 L 75.68,208.5 C 63.17,208.5 53,218.7 53,231.2 L 53.02,412.6 C 53.02,425.2 63.15,435.3 75.67,435.3 L 257.1,435.3 z"
           id="path2425"
           style="fill:#006699;fill-opacity:1;fill-rule:evenodd;stroke:none" /><path
           d="M 101.1,381.3 L 125.3,381.3 L 125.3,300.8 L 101.1,300.8 L 101.1,381.3 z"
           id="path2423"
           style="fill:#ffffff;fill-opacity:1;fill-rule:evenodd;stroke:none" /><path
           d="M 70.44,412.5 L 155.1,412.5 L 155.1,388.3 L 70.44,388.3 L 70.44,412.5 z"
           id="path2421"
           style="fill:#ffffff;fill-opacity:1;fill-rule:evenodd;stroke:none" /><path
           d="M 121.3,271.2 L 113.2,271.2 L 107,246.1 L 99.7,271.2 L 93.87,271.2 L 86.58,246.1 L 80.41,271.2 L 72.29,271.2 L 82.94,231.3 L 89.44,231.3 L 96.78,255.5 L 104.1,231.3 L 110.6,231.3 L 121.3,271.2 z"
           id="path2419"
           style="fill:#ffffff;fill-opacity:1;fill-rule:evenodd;stroke:none" /><path
           d="M 256.7,231.8 L 256.7,271.7 L 248.9,271.7 L 248.9,247.2 L 233.1,271.7 L 226.2,271.7 L 226.2,231.8 L 234,231.8 L 234,256.3 L 249.8,231.8 L 256.7,231.8 z"
           id="path2417"
           style="fill:#ffffff;fill-opacity:1;fill-rule:evenodd;stroke:none" /><path
           d="M 200.9,231.8 L 200.9,238.7 L 182.4,238.7 L 182.4,248.4 L 198.1,248.4 L 198.1,255.4 L 182.4,255.4 L 182.4,264.7 L 200.9,264.7 L 200.9,271.7 L 174.6,271.7 L 174.6,231.8 L 200.9,231.8 z"
           id="path2415"
           style="fill:#ffffff;fill-opacity:1;fill-rule:evenodd;stroke:none" /><path
           d="M 147.9,271.7 L 140.1,271.7 L 140.1,231.8 L 147.9,231.8 L 147.9,271.7 z"
           id="path2413"
           style="fill:#ffffff;fill-opacity:1;fill-rule:evenodd;stroke:none" /><path
           d="M 207.9,300.2 L 206.6,300.3 C 183.9,302.7 166.3,321.8 166.3,345.2 L 166.3,412.5 L 190.9,412.5 L 190.8,345.8 C 190.8,336 197.6,327.2 206.7,324.9 C 207.1,324.8 207.4,324.7 207.9,324.7 L 207.9,300.2 z"
           id="path2411"
           style="fill:#ffffff;fill-opacity:1;fill-rule:evenodd;stroke:none" /><path
           d="M 215.2,324.7 C 215.6,324.8 215.8,324.8 216.2,324.9 C 225.3,327.2 232.1,336 232.1,345.8 L 231.9,412.5 L 256.6,412.5 L 256.6,345.4 C 256.6,322.1 238.9,302.7 216.2,300.3 L 215.2,300.2"
           id="path19"
           style="fill:#ffffff;fill-opacity:1;fill-rule:evenodd;stroke:none" /></g></g></g></svg>